<svg width="32.000000" height="32.000000" viewBox="0 0 32 32" fill="none" xmlns="http://www.w3.org/2000/svg" xmlns:xlink="http://www.w3.org/1999/xlink">
	<desc>
			Created with Pixso.
	</desc>
	<defs>
		<clipPath id="clip11_549">
			<rect id="Linear / Money / Sale " width="32.000000" height="32.000000" fill="white" fill-opacity="0"/>
		</clipPath>
	</defs>
	<g clip-path="url(#clip11_549)">
		<path id="Vector" d="M11.22 6.17C11.65 6.09 12.06 5.92 12.43 5.67C12.59 5.57 12.74 5.44 13.04 5.18C13.79 4.54 14.16 4.22 14.56 4.03C15.47 3.6 16.52 3.6 17.43 4.03C17.83 4.22 18.2 4.54 18.95 5.18C19.25 5.44 19.4 5.57 19.56 5.67C19.93 5.92 20.34 6.09 20.77 6.17C20.96 6.21 21.16 6.23 21.55 6.26C22.53 6.34 23.03 6.38 23.44 6.52C24.39 6.86 25.13 7.6 25.47 8.55C25.61 8.96 25.65 9.46 25.73 10.44C25.76 10.83 25.78 11.03 25.82 11.22C25.9 11.65 26.07 12.06 26.32 12.43C26.42 12.59 26.55 12.74 26.81 13.04C27.45 13.79 27.77 14.16 27.96 14.56C28.39 15.47 28.39 16.52 27.96 17.43C27.77 17.83 27.45 18.2 26.81 18.95C26.55 19.25 26.42 19.4 26.32 19.56C26.07 19.93 25.9 20.34 25.82 20.77C25.78 20.96 25.76 21.16 25.73 21.55C25.65 22.53 25.61 23.03 25.47 23.44C25.13 24.39 24.39 25.13 23.44 25.47C23.03 25.61 22.53 25.65 21.55 25.73C21.16 25.76 20.96 25.78 20.77 25.82C20.34 25.9 19.93 26.07 19.56 26.32C19.4 26.42 19.25 26.55 18.95 26.81C18.2 27.45 17.83 27.77 17.43 27.96C16.52 28.39 15.47 28.39 14.56 27.96C14.16 27.77 13.79 27.45 13.04 26.81C12.74 26.55 12.59 26.42 12.43 26.32C12.06 26.07 11.65 25.9 11.22 25.82C11.03 25.78 10.83 25.76 10.44 25.73C9.46 25.65 8.96 25.61 8.55 25.47C7.6 25.13 6.86 24.39 6.52 23.44C6.38 23.03 6.34 22.53 6.26 21.55C6.23 21.16 6.21 20.96 6.17 20.77C6.09 20.34 5.92 19.93 5.67 19.56C5.57 19.4 5.44 19.25 5.18 18.95C4.54 18.2 4.22 17.83 4.03 17.43C3.6 16.52 3.6 15.47 4.03 14.56C4.22 14.16 4.54 13.79 5.18 13.04C5.44 12.74 5.57 12.59 5.67 12.43C5.92 12.06 6.09 11.65 6.17 11.22C6.21 11.03 6.23 10.83 6.26 10.44C6.34 9.46 6.38 8.96 6.52 8.55C6.86 7.6 7.6 6.86 8.55 6.52C8.96 6.38 9.46 6.34 10.44 6.26C10.83 6.23 11.03 6.21 11.22 6.17Z" stroke="#181818" stroke-opacity="1.000000" stroke-width="1.500000"/>
		<path id="Vector" d="M12 20L20 12" stroke="#181818" stroke-opacity="1.000000" stroke-width="1.500000" stroke-linecap="round"/>
		<path id="Vector" d="M20.66 19.33C20.66 20.06 20.06 20.66 19.33 20.66C18.59 20.66 18 20.06 18 19.33C18 18.59 18.59 18 19.33 18C20.06 18 20.66 18.59 20.66 19.33Z" fill="#181818" fill-opacity="1.000000" fill-rule="nonzero"/>
		<path id="Vector" d="M13.99 12.66C13.99 13.4 13.4 13.99 12.66 13.99C11.93 13.99 11.33 13.4 11.33 12.66C11.33 11.93 11.93 11.33 12.66 11.33C13.4 11.33 13.99 11.93 13.99 12.66Z" fill="#181818" fill-opacity="1.000000" fill-rule="nonzero"/>
	</g>
</svg>
