<svg width="32" height="32" viewBox="0 0 32 32" fill="none" xmlns="http://www.w3.org/2000/svg">
<path d="M13.0418 5.18768C13.7936 4.54697 14.1695 4.22662 14.5625 4.03876C15.4716 3.60427 16.5284 3.60427 17.4375 4.03876C17.8305 4.22662 18.2064 4.54697 18.9582 5.18768C19.2575 5.44268 19.4071 5.57018 19.5669 5.67728C19.9332 5.92278 20.3445 6.09317 20.7771 6.17858C20.9658 6.21583 21.1618 6.23147 21.5537 6.26275C22.5384 6.34132 23.0307 6.38061 23.4414 6.52569C24.3915 6.86126 25.1388 7.60853 25.4743 8.55857C25.6194 8.96933 25.6587 9.46166 25.7373 10.4463C25.7685 10.8382 25.7842 11.0342 25.8214 11.2229C25.9068 11.6555 26.0772 12.0669 26.3227 12.4331C26.4298 12.5929 26.5573 12.7425 26.8123 13.0418C27.453 13.7936 27.7734 14.1695 27.9613 14.5626C28.3957 15.4716 28.3957 16.5284 27.9613 17.4375C27.7734 17.8305 27.453 18.2064 26.8123 18.9583C26.5573 19.2575 26.4298 19.4071 26.3227 19.5669C26.0772 19.9332 25.9068 20.3445 25.8214 20.7771C25.7842 20.9658 25.7685 21.1618 25.7373 21.5537C25.6587 22.5384 25.6194 23.0307 25.4743 23.4415C25.1388 24.3915 24.3915 25.1388 23.4414 25.4743C23.0307 25.6194 22.5384 25.6587 21.5537 25.7373C21.1618 25.7686 20.9658 25.7842 20.7771 25.8215C20.3445 25.9069 19.9332 26.0772 19.5669 26.3228C19.4071 26.4298 19.2575 26.5573 18.9582 26.8124C18.2064 27.4531 17.8305 27.7734 17.4375 27.9613C16.5284 28.3958 15.4716 28.3958 14.5625 27.9613C14.1695 27.7734 13.7936 27.4531 13.0418 26.8124C12.7425 26.5573 12.5929 26.4298 12.4331 26.3228C12.0668 26.0772 11.6555 25.9069 11.2229 25.8215C11.0342 25.7842 10.8382 25.7686 10.4463 25.7373C9.46165 25.6587 8.96931 25.6194 8.55856 25.4743C7.60852 25.1388 6.86124 24.3915 6.52568 23.4415C6.3806 23.0307 6.34131 22.5384 6.26273 21.5537C6.23146 21.1618 6.21582 20.9658 6.17856 20.7771C6.09315 20.3445 5.92277 19.9332 5.67727 19.5669C5.57017 19.4071 5.44267 19.2575 5.18766 18.9583C4.54696 18.2064 4.22661 17.8305 4.03875 17.4375C3.60425 16.5284 3.60425 15.4716 4.03875 14.5626C4.22661 14.1695 4.54696 13.7936 5.18766 13.0418C5.44267 12.7425 5.57017 12.5929 5.67727 12.4331C5.92277 12.0669 6.09315 11.6555 6.17856 11.2229C6.21582 11.0342 6.23146 10.8382 6.26273 10.4463C6.34131 9.46166 6.3806 8.96933 6.52568 8.55857C6.86124 7.60854 7.60852 6.86126 8.55856 6.52569C8.96931 6.38061 9.46165 6.34132 10.4463 6.26275C10.8382 6.23147 11.0342 6.21583 11.2229 6.17858C11.6555 6.09317 12.0668 5.92278 12.4331 5.67728C12.5929 5.57018 12.7425 5.44268 13.0418 5.18768Z" stroke="#181818" stroke-width="1.5"/>
<path d="M12 20L20 12" stroke="#181818" stroke-width="1.5" stroke-linecap="round"/>
<path d="M20.6667 19.3333C20.6667 20.0697 20.0697 20.6667 19.3333 20.6667C18.597 20.6667 18 20.0697 18 19.3333C18 18.597 18.597 18 19.3333 18C20.0697 18 20.6667 18.597 20.6667 19.3333Z" fill="#181818"/>
<path d="M14 12.6666C14 13.403 13.403 14 12.6667 14C11.9303 14 11.3333 13.403 11.3333 12.6666C11.3333 11.9303 11.9303 11.3333 12.6667 11.3333C13.403 11.3333 14 11.9303 14 12.6666Z" fill="#181818"/>
</svg>
