<svg width="32.000000" height="32.000000" viewBox="0 0 32 32" fill="none" xmlns="http://www.w3.org/2000/svg" xmlns:xlink="http://www.w3.org/1999/xlink">
	<desc>
			Created with Pixso.
	</desc>
	<defs>
		<clipPath id="clip2_640">
			<rect id="Linear / Search / Rounded Magnifer" width="32.000000" height="32.000000" fill="white" fill-opacity="0"/>
		</clipPath>
	</defs>
	<g clip-path="url(#clip2_640)">
		<circle id="Vector" cx="14.666504" cy="14.666672" r="12.000000" stroke="#181818" stroke-opacity="1.000000" stroke-width="1.500000"/>
		<path id="Vector" d="M29.08 27.96C29.57 27.22 29.32 26.22 28.53 25.8C28.4 25.73 28.2 25.67 27.79 25.55C27.34 25.41 27.12 25.35 26.96 25.33C26.03 25.26 25.26 26.03 25.33 26.96C25.35 27.11 25.41 27.34 25.55 27.79C25.67 28.2 25.73 28.4 25.8 28.53C26.22 29.32 27.22 29.57 27.96 29.08C28.09 28.99 28.24 28.84 28.54 28.54C28.84 28.24 28.99 28.09 29.08 27.96Z" stroke="#181818" stroke-opacity="1.000000" stroke-width="1.500000"/>
	</g>
</svg>
