<svg width="32.000000" height="32.000000" viewBox="0 0 32 32" fill="none" xmlns="http://www.w3.org/2000/svg" xmlns:xlink="http://www.w3.org/1999/xlink">
	<desc>
			Created with Pixso.
	</desc>
	<defs>
		<clipPath id="clip2_635">
			<rect id="Linear / Shopping, Ecommerce / Bag" width="32.000000" height="32.000000" fill="white" fill-opacity="0"/>
		</clipPath>
	</defs>
	<g clip-path="url(#clip2_635)">
		<path id="Vector" d="M16.48 8C20.71 8 22.83 8 24.31 9.22C25.79 10.45 26.18 12.53 26.96 16.7C28.06 22.55 28.61 25.47 27.01 27.4C25.41 29.33 22.43 29.33 16.48 29.33L15.51 29.33C9.56 29.33 6.58 29.33 4.98 27.4C3.38 25.47 3.93 22.55 5.03 16.7C5.81 12.53 6.2 10.45 7.68 9.22C9.16 8 11.28 8 15.51 8L16.48 8Z" stroke="#181818" stroke-opacity="1.000000" stroke-width="1.500000"/>
		<path id="Vector" d="M12 8L12 6.66C12 4.45 13.79 2.66 16 2.66C18.2 2.66 20 4.45 20 6.66L20 8" stroke="#181818" stroke-opacity="1.000000" stroke-width="1.500000" stroke-linecap="round"/>
	</g>
</svg>
