<svg width="20.000000" height="20.000000" viewBox="0 0 20 20" fill="none" xmlns="http://www.w3.org/2000/svg" xmlns:xlink="http://www.w3.org/1999/xlink">
	<desc>
			Created with Pixso.
	</desc>
	<defs/>
	<path id="Subtract" d="M10 20C15.52 20 20 15.52 20 10C20 4.47 15.52 0 10 0C4.47 0 0 4.47 0 10C0 15.52 4.47 20 10 20ZM7 11.25C6.58 11.25 6.25 11.58 6.25 12C6.25 12.41 6.58 12.75 7 12.75L7.25 12.75L7.25 15C7.25 15.41 7.58 15.75 8 15.75C8.41 15.75 8.75 15.41 8.75 15L8.75 12.75L10 12.75C10.41 12.75 10.75 12.41 10.75 12C10.75 11.58 10.41 11.25 10 11.25L8.75 11.25L8.75 10.75L11.5 10.75C13.29 10.75 14.75 9.29 14.75 7.5C14.75 5.7 13.29 4.25 11.5 4.25L9.16 4.24C9.01 4.24 8.86 4.24 8.72 4.27C7.97 4.39 7.39 4.97 7.27 5.72C7.24 5.86 7.24 6.01 7.24 6.16L7.25 9.25L7 9.25C6.58 9.25 6.25 9.58 6.25 10C6.25 10.41 6.58 10.75 7 10.75L7.25 10.75L7.25 11.25L7 11.25ZM8.75 9.25L11.5 9.25C12.46 9.25 13.25 8.46 13.25 7.5C13.25 6.53 12.46 5.75 11.5 5.75L9.2 5.75C9.1 5.75 9.04 5.75 9 5.75C8.97 5.75 8.96 5.75 8.95 5.75C8.85 5.77 8.77 5.85 8.75 5.95C8.75 5.96 8.75 5.97 8.75 6C8.75 6.04 8.75 6.1 8.75 6.2L8.75 9.25Z" fill="#181818" fill-opacity="1.000000" fill-rule="evenodd"/>
</svg>
