<svg width="18.419876" height="19.750000" viewBox="0 0 18.4199 19.75" fill="none" xmlns="http://www.w3.org/2000/svg" xmlns:xlink="http://www.w3.org/1999/xlink">
	<desc>
			Created with Pixso.
	</desc>
	<defs/>
	<path id="Vector" d="M5.46 4.76C5.46 4.75 5.45 4.75 5.45 4.75L5.45 3.75C5.45 1.67 7.13 0 9.2 0C11.28 0 12.96 1.67 12.96 3.75L12.96 4.75C12.96 4.75 12.95 4.75 12.95 4.76C14.25 4.79 15.04 4.93 15.65 5.42C16.48 6.1 16.71 7.26 17.17 9.57L17.77 12.57C18.43 15.89 18.77 17.55 17.87 18.65C16.97 19.75 15.27 19.75 11.89 19.75L6.52 19.75C3.14 19.75 1.44 19.75 0.54 18.65C-0.36 17.55 -0.02 15.89 0.64 12.57L1.24 9.57C1.7 7.26 1.93 6.1 2.76 5.42C3.37 4.93 4.16 4.79 5.46 4.76ZM6.95 3.75C6.95 2.5 7.96 1.5 9.2 1.5C10.45 1.5 11.46 2.5 11.46 3.75L11.46 4.75C11.4 4.75 11.34 4.75 11.29 4.75L7.12 4.75C7.07 4.75 7.01 4.75 6.95 4.75L6.95 3.75ZM12.2 8.75C12.76 8.75 13.2 8.3 13.2 7.75C13.2 7.19 12.76 6.75 12.2 6.75C11.65 6.75 11.2 7.19 11.2 7.75C11.2 8.3 11.65 8.75 12.2 8.75ZM7.2 7.75C7.2 8.3 6.76 8.75 6.2 8.75C5.65 8.75 5.2 8.3 5.2 7.75C5.2 7.19 5.65 6.75 6.2 6.75C6.76 6.75 7.2 7.19 7.2 7.75Z" fill="#181818" fill-opacity="1.000000" fill-rule="evenodd"/>
</svg>
