<svg width="64" height="64" viewBox="0 0 64 64" fill="none" xmlns="http://www.w3.org/2000/svg">
<path fill-rule="evenodd" clip-rule="evenodd" d="M52.6401 32.0006C52.6401 20.5988 43.4012 11.3599 31.9996 11.3599C20.5978 11.3599 11.3594 20.5988 11.3594 32.0006C11.3594 43.4017 20.5978 52.6407 31.9996 52.6407C43.4012 52.6406 52.6401 43.4017 52.6401 32.0006ZM52.2493 8.55487C50.4068 8.55487 48.928 10.0482 48.928 11.8762C48.928 13.7187 50.4068 15.1981 52.2493 15.1981C54.0776 15.1981 55.5705 13.7187 55.5705 11.8762C55.5707 10.0482 54.0778 8.55487 52.2493 8.55487ZM15.1276 3.7823H48.8719C55.1244 3.7823 60.2179 8.88995 60.2179 15.1277V48.8719C60.2179 55.1244 55.1245 60.2188 48.8719 60.2188H15.1276C8.8893 60.2188 3.78132 55.1245 3.78132 48.8719V15.1277C3.78132 8.88995 8.88946 3.7823 15.1276 3.7823ZM48.8719 0H15.1276C6.80961 0 -0.000488281 6.81009 -0.000488281 15.1276V48.8718C-0.000488281 57.2039 6.80961 64.0003 15.1276 64.0003H48.8719C57.2036 64.0003 63.9995 57.2039 63.9995 48.8718V15.1277C63.9995 6.81009 57.2036 0 48.8719 0ZM15.6435 32.0006C15.6435 22.9708 22.9703 15.644 31.9996 15.644C41.0289 15.644 48.3556 22.9708 48.3556 32.0006C48.3556 41.0299 41.0289 48.3556 31.9996 48.3556C22.9703 48.3556 15.6435 41.0299 15.6435 32.0006Z" fill="white"/>
</svg>
